<?xml version="1.0" encoding="utf-8"?>
<!-- Generator: Adobe Illustrator 22.0.1, SVG Export Plug-In . SVG Version: 6.00 Build 0)  -->
<svg version="1.1" id="Layer_1" xmlns="http://www.w3.org/2000/svg" xmlns:xlink="http://www.w3.org/1999/xlink" x="0px" y="0px"
	 viewBox="0 0 120.9 18.4" style="enable-background:new 0 0 120.9 18.4;" xml:space="preserve">
<g>
	<path d="M2.4,0v8.9c1-1,2.1-1.5,3.3-1.5c1.4,0,2.6,0.5,3.5,1.6c0.9,1,1.4,2.3,1.4,3.9c0,1.6-0.5,2.9-1.4,4c-0.9,1-2.1,1.6-3.6,1.6
		c-1.2,0-2.3-0.5-3.2-1.4v1.1H0V0H2.4z M8.2,13c0-1-0.3-1.8-0.8-2.4c-0.6-0.6-1.2-1-2.1-1c-0.9,0-1.6,0.3-2.2,0.9
		c-0.6,0.6-0.8,1.4-0.8,2.4c0,1,0.3,1.8,0.8,2.4c0.5,0.6,1.3,0.9,2.1,0.9c0.8,0,1.5-0.3,2.1-0.9C7.9,14.7,8.2,13.9,8.2,13z"/>
	<path d="M14.2,7.7h2.4v0.9c0.4-0.5,0.8-0.8,1.2-1c0.4-0.2,0.8-0.3,1.2-0.3c0.6,0,1.3,0.2,2,0.6l-1.1,2.2c-0.5-0.3-0.9-0.5-1.3-0.5
		c-1.3,0-2,1-2,3v5.4h-2.4V7.7z"/>
	<path d="M31,7.7h2.4v10.5H31V17c-1,0.9-2.1,1.4-3.2,1.4c-1.4,0-2.6-0.5-3.6-1.6c-0.9-1.1-1.4-2.4-1.4-4c0-1.6,0.5-2.9,1.4-3.9
		c0.9-1,2.1-1.6,3.5-1.6c1.2,0,2.3,0.5,3.3,1.5V7.7z M25.2,12.9c0,1,0.3,1.8,0.8,2.4c0.6,0.6,1.2,1,2.1,1c0.9,0,1.6-0.3,2.2-0.9
		c0.6-0.6,0.8-1.4,0.8-2.4c0-1-0.3-1.8-0.8-2.4c-0.6-0.6-1.3-0.9-2.1-0.9c-0.8,0-1.5,0.3-2.1,0.9C25.5,11.2,25.2,11.9,25.2,12.9z"/>
	<path d="M37.4,7.7h2.4v1c0.8-0.8,1.8-1.3,2.9-1.3c1.2,0,2.2,0.4,2.8,1.1c0.6,0.7,0.9,1.7,0.9,3.2v6.4H44v-5.8c0-1-0.1-1.7-0.4-2.1
		c-0.3-0.4-0.8-0.6-1.5-0.6c-0.8,0-1.4,0.3-1.7,0.8c-0.3,0.5-0.5,1.4-0.5,2.7v5h-2.4V7.7z"/>
	<path d="M58.2,0h2.4v18.1h-2.4V17c-1,0.9-2,1.4-3.2,1.4c-1.4,0-2.6-0.5-3.6-1.6c-0.9-1.1-1.4-2.4-1.4-4c0-1.6,0.5-2.9,1.4-3.9
		c0.9-1.1,2.1-1.6,3.5-1.6c1.2,0,2.3,0.5,3.3,1.5V0z M52.5,12.9c0,1,0.3,1.8,0.8,2.4c0.6,0.6,1.2,1,2.1,1c0.9,0,1.6-0.3,2.2-0.9
		c0.6-0.6,0.8-1.4,0.8-2.4c0-1-0.3-1.8-0.8-2.4c-0.6-0.6-1.3-0.9-2.1-0.9c-0.8,0-1.5,0.3-2.1,0.9C52.7,11.2,52.5,11.9,52.5,12.9z"/>
	<path d="M72.4,7.7h2.4v10.5h-2.4V17c-1,0.9-2.1,1.4-3.2,1.4c-1.4,0-2.6-0.5-3.6-1.6c-0.9-1.1-1.4-2.4-1.4-4c0-1.6,0.5-2.9,1.4-3.9
		c0.9-1,2.1-1.6,3.5-1.6c1.2,0,2.3,0.5,3.3,1.5V7.7z M66.6,12.9c0,1,0.3,1.8,0.8,2.4c0.6,0.6,1.2,1,2.1,1c0.9,0,1.6-0.3,2.2-0.9
		c0.6-0.6,0.8-1.4,0.8-2.4c0-1-0.3-1.8-0.8-2.4c-0.6-0.6-1.3-0.9-2.1-0.9c-0.8,0-1.5,0.3-2.1,0.9C66.9,11.2,66.6,11.9,66.6,12.9z"/>
	<path d="M82.3,15.9h6.2v2.3h-11l6.8-8.2H79V7.7h10.1L82.3,15.9z"/>
	<path d="M91.4,3.3c0-0.4,0.2-0.8,0.5-1.1c0.3-0.3,0.7-0.5,1.1-0.5c0.4,0,0.8,0.2,1.1,0.5c0.3,0.3,0.5,0.7,0.5,1.1
		c0,0.4-0.2,0.8-0.5,1.1c-0.3,0.3-0.7,0.5-1.1,0.5s-0.8-0.2-1.1-0.5C91.6,4.2,91.4,3.8,91.4,3.3z M94.2,7.7v10.5h-2.4V7.7H94.2z"/>
	<path d="M98.3,7.7h2.4v1c0.8-0.8,1.8-1.3,2.9-1.3c1.2,0,2.2,0.4,2.8,1.1c0.6,0.7,0.9,1.7,0.9,3.2v6.4h-2.4v-5.8
		c0-1-0.1-1.7-0.4-2.1c-0.3-0.4-0.8-0.6-1.5-0.6c-0.8,0-1.4,0.3-1.7,0.8c-0.3,0.5-0.5,1.4-0.5,2.7v5h-2.4V7.7z"/>
	<path d="M120.8,13.5h-7.5c0.1,0.9,0.3,1.5,0.8,2.1c0.5,0.5,1.1,0.8,1.9,0.8c0.6,0,1.1-0.1,1.5-0.4c0.4-0.3,0.8-0.8,1.3-1.6l2,1.1
		c-0.3,0.5-0.6,1-1,1.4c-0.4,0.4-0.7,0.7-1.1,0.9s-0.8,0.4-1.3,0.5c-0.5,0.1-1,0.2-1.5,0.2c-1.6,0-2.8-0.5-3.8-1.5
		c-0.9-1-1.4-2.3-1.4-4c0-1.7,0.5-3,1.4-4c0.9-1,2.1-1.5,3.7-1.5c1.5,0,2.8,0.5,3.7,1.5c0.9,1,1.3,2.3,1.3,4L120.8,13.5z
		 M118.4,11.5c-0.3-1.3-1.1-1.9-2.4-1.9c-0.3,0-0.6,0-0.8,0.1c-0.3,0.1-0.5,0.2-0.7,0.4c-0.2,0.2-0.4,0.4-0.5,0.6s-0.3,0.5-0.3,0.8
		H118.4z"/>
</g>
</svg>
