<svg width="24" height="24" viewBox="0 0 24 24" fill="none" xmlns="http://www.w3.org/2000/svg">
<rect x="2" y="2" width="20" height="20" rx="2" stroke="#111111" stroke-width="1.5"/>
<path d="M8.75 8C8.75 8.41421 9.08579 8.75 9.5 8.75C9.91421 8.75 10.25 8.41421 10.25 8H8.75ZM12.5 10L12.1646 9.32918C11.9105 9.45622 11.75 9.71592 11.75 10H12.5ZM12.5 11.5H11.75C11.75 11.7841 11.9105 12.0438 12.1646 12.1708L12.5 11.5ZM17.5 14L17.1646 14.6708C17.1712 14.6741 17.1778 14.6773 17.1845 14.6804L17.5 14ZM6 14.5L6.33541 15.1708C6.34782 15.1646 6.36006 15.1581 6.3721 15.1512L6 14.5ZM9.8721 13.1512C10.2317 12.9457 10.3567 12.4875 10.1512 12.1279C9.94567 11.7683 9.48753 11.6433 9.1279 11.8488L9.8721 13.1512ZM10.25 8C10.25 7.60273 10.3533 7.12484 10.5735 6.7725C10.7733 6.4529 11.0514 6.25 11.5 6.25V4.75C10.4486 4.75 9.72675 5.2971 9.3015 5.9775C8.89671 6.62516 8.75 7.39727 8.75 8H10.25ZM11.5 6.25C12.0796 6.25 12.5043 6.43991 12.7822 6.71783C13.0601 6.99575 13.25 7.42044 13.25 8H14.75C14.75 7.07956 14.4399 6.25425 13.8428 5.65717C13.2457 5.06009 12.4204 4.75 11.5 4.75V6.25ZM13.25 8C13.25 8.69172 13.1287 8.81061 13.0947 8.84467C13.056 8.88331 12.9863 8.93394 12.8208 9.01668C12.7391 9.05756 12.649 9.09918 12.5357 9.15177C12.426 9.20273 12.3002 9.26139 12.1646 9.32918L12.8354 10.6708C12.9498 10.6136 13.0584 10.5629 13.1674 10.5123C13.2729 10.4633 13.3859 10.4112 13.4917 10.3583C13.7012 10.2536 13.944 10.1167 14.1553 9.90533C14.6213 9.43939 14.75 8.80828 14.75 8H13.25ZM11.75 10V10.5H13.25V10H11.75ZM11.75 10.5V11.5H13.25V10.5H11.75ZM12.1646 12.1708L17.1646 14.6708L17.8354 13.3292L12.8354 10.8292L12.1646 12.1708ZM17.5 14C17.1845 14.6804 17.1844 14.6804 17.1843 14.6803C17.1842 14.6803 17.1841 14.6802 17.184 14.6802C17.1839 14.6801 17.1837 14.6801 17.1836 14.68C17.1834 14.6799 17.1833 14.6798 17.1833 14.6798C17.1832 14.6798 17.1834 14.6799 17.184 14.6802C17.1852 14.6808 17.1877 14.6819 17.1915 14.6838C17.199 14.6874 17.2114 14.6934 17.228 14.7018C17.2613 14.7185 17.311 14.7441 17.3714 14.7776C17.494 14.8453 17.6527 14.9406 17.8071 15.0535C17.9657 15.1696 18.0942 15.286 18.1767 15.3906C18.2633 15.5005 18.25 15.5338 18.25 15.5H19.75C19.75 15.0639 19.5492 14.7086 19.3546 14.4618C19.1558 14.2097 18.9093 14.0014 18.6929 13.843C18.4723 13.6816 18.256 13.5527 18.0973 13.4649C18.0172 13.4206 17.9496 13.3856 17.9009 13.3612C17.8765 13.3489 17.8567 13.3392 17.8422 13.3323C17.835 13.3288 17.8291 13.326 17.8246 13.3238C17.8223 13.3228 17.8204 13.3219 17.8189 13.3212C17.8182 13.3208 17.8175 13.3205 17.8169 13.3202C17.8166 13.3201 17.8164 13.32 17.8161 13.3199C17.816 13.3198 17.8158 13.3197 17.8158 13.3197C17.8156 13.3196 17.8155 13.3196 17.5 14ZM18.25 15.5C18.25 15.5134 18.2473 15.5483 18.2351 15.5908C18.2232 15.6324 18.2071 15.6649 18.1913 15.6868C18.1775 15.7059 18.1648 15.7164 18.1499 15.7241C18.1356 15.7315 18.0929 15.75 18 15.75V17.25C18.6444 17.25 19.1196 16.9647 19.4087 16.5632C19.6702 16.2 19.75 15.7867 19.75 15.5H18.25ZM18 15.75C17.9984 15.75 17.9969 15.75 17.9952 15.75C17.9936 15.75 17.992 15.75 17.9903 15.75C17.9887 15.75 17.987 15.75 17.9853 15.75C17.9836 15.75 17.9818 15.75 17.9801 15.75C17.9783 15.75 17.9765 15.75 17.9747 15.75C17.9729 15.75 17.971 15.75 17.9692 15.75C17.9673 15.75 17.9654 15.75 17.9635 15.75C17.9616 15.75 17.9597 15.75 17.9577 15.75C17.9558 15.75 17.9538 15.75 17.9518 15.75C17.9498 15.75 17.9477 15.75 17.9457 15.75C17.9436 15.75 17.9415 15.75 17.9394 15.75C17.9373 15.75 17.9352 15.75 17.9331 15.75C17.9309 15.75 17.9287 15.75 17.9265 15.75C17.9243 15.75 17.9221 15.75 17.9199 15.75C17.9176 15.75 17.9153 15.75 17.913 15.75C17.9107 15.75 17.9084 15.75 17.9061 15.75C17.9037 15.75 17.9014 15.75 17.899 15.75C17.8966 15.75 17.8942 15.75 17.8917 15.75C17.8893 15.75 17.8868 15.75 17.8843 15.75C17.8818 15.75 17.8793 15.75 17.8768 15.75C17.8743 15.75 17.8717 15.75 17.8691 15.75C17.8665 15.75 17.8639 15.75 17.8613 15.75C17.8587 15.75 17.856 15.75 17.8533 15.75C17.8507 15.75 17.848 15.75 17.8453 15.75C17.8425 15.75 17.8398 15.75 17.837 15.75C17.8343 15.75 17.8315 15.75 17.8286 15.75C17.8258 15.75 17.823 15.75 17.8201 15.75C17.8173 15.75 17.8144 15.75 17.8115 15.75C17.8086 15.75 17.8056 15.75 17.8027 15.75C17.7997 15.75 17.7968 15.75 17.7938 15.75C17.7908 15.75 17.7878 15.75 17.7847 15.75C17.7817 15.75 17.7786 15.75 17.7755 15.75C17.7724 15.75 17.7693 15.75 17.7662 15.75C17.763 15.75 17.7599 15.75 17.7567 15.75C17.7535 15.75 17.7503 15.75 17.7471 15.75C17.7439 15.75 17.7406 15.75 17.7374 15.75C17.7341 15.75 17.7308 15.75 17.7275 15.75C17.7242 15.75 17.7208 15.75 17.7175 15.75C17.7141 15.75 17.7108 15.75 17.7073 15.75C17.7039 15.75 17.7005 15.75 17.6971 15.75C17.6936 15.75 17.6902 15.75 17.6867 15.75C17.6832 15.75 17.6797 15.75 17.6761 15.75C17.6726 15.75 17.669 15.75 17.6655 15.75C17.6619 15.75 17.6583 15.75 17.6547 15.75C17.651 15.75 17.6474 15.75 17.6437 15.75C17.6401 15.75 17.6364 15.75 17.6327 15.75C17.629 15.75 17.6252 15.75 17.6215 15.75C17.6177 15.75 17.614 15.75 17.6102 15.75C17.6064 15.75 17.6026 15.75 17.5987 15.75C17.5949 15.75 17.591 15.75 17.5872 15.75C17.5833 15.75 17.5794 15.75 17.5755 15.75C17.5715 15.75 17.5676 15.75 17.5636 15.75C17.5597 15.75 17.5557 15.75 17.5517 15.75C17.5477 15.75 17.5436 15.75 17.5396 15.75C17.5355 15.75 17.5315 15.75 17.5274 15.75C17.5233 15.75 17.5192 15.75 17.515 15.75C17.5109 15.75 17.5068 15.75 17.5026 15.75C17.4984 15.75 17.4942 15.75 17.49 15.75C17.4858 15.75 17.4816 15.75 17.4773 15.75C17.473 15.75 17.4688 15.75 17.4645 15.75C17.4602 15.75 17.4559 15.75 17.4515 15.75C17.4472 15.75 17.4428 15.75 17.4384 15.75C17.4341 15.75 17.4297 15.75 17.4252 15.75C17.4208 15.75 17.4164 15.75 17.4119 15.75C17.4075 15.75 17.403 15.75 17.3985 15.75C17.394 15.75 17.3894 15.75 17.3849 15.75C17.3804 15.75 17.3758 15.75 17.3712 15.75C17.3666 15.75 17.362 15.75 17.3574 15.75C17.3528 15.75 17.3482 15.75 17.3435 15.75C17.3388 15.75 17.3342 15.75 17.3295 15.75C17.3248 15.75 17.32 15.75 17.3153 15.75C17.3106 15.75 17.3058 15.75 17.301 15.75C17.2962 15.75 17.2914 15.75 17.2866 15.75C17.2818 15.75 17.277 15.75 17.2721 15.75C17.2672 15.75 17.2624 15.75 17.2575 15.75C17.2526 15.75 17.2477 15.75 17.2427 15.75C17.2378 15.75 17.2328 15.75 17.2279 15.75C17.2229 15.75 17.2179 15.75 17.2129 15.75C17.2079 15.75 17.2028 15.75 17.1978 15.75C17.1927 15.75 17.1877 15.75 17.1826 15.75C17.1775 15.75 17.1724 15.75 17.1672 15.75C17.1621 15.75 17.157 15.75 17.1518 15.75C17.1466 15.75 17.1415 15.75 17.1363 15.75C17.1311 15.75 17.1258 15.75 17.1206 15.75C17.1154 15.75 17.1101 15.75 17.1048 15.75C17.0995 15.75 17.0942 15.75 17.0889 15.75C17.0836 15.75 17.0783 15.75 17.0729 15.75C17.0676 15.75 17.0622 15.75 17.0568 15.75C17.0514 15.75 17.046 15.75 17.0406 15.75C17.0352 15.75 17.0297 15.75 17.0243 15.75C17.0188 15.75 17.0133 15.75 17.0078 15.75C17.0023 15.75 16.9968 15.75 16.9913 15.75C16.9857 15.75 16.9802 15.75 16.9746 15.75C16.9691 15.75 16.9635 15.75 16.9579 15.75C16.9522 15.75 16.9466 15.75 16.941 15.75C16.9353 15.75 16.9297 15.75 16.924 15.75C16.9183 15.75 16.9126 15.75 16.9069 15.75C16.9012 15.75 16.8955 15.75 16.8897 15.75C16.884 15.75 16.8782 15.75 16.8724 15.75C16.8666 15.75 16.8608 15.75 16.855 15.75C16.8492 15.75 16.8433 15.75 16.8375 15.75C16.8316 15.75 16.8258 15.75 16.8199 15.75C16.814 15.75 16.8081 15.75 16.8022 15.75C16.7962 15.75 16.7903 15.75 16.7843 15.75C16.7784 15.75 16.7724 15.75 16.7664 15.75C16.7604 15.75 16.7544 15.75 16.7484 15.75C16.7423 15.75 16.7363 15.75 16.7302 15.75C16.7242 15.75 16.7181 15.75 16.712 15.75C16.7059 15.75 16.6998 15.75 16.6937 15.75C16.6875 15.75 16.6814 15.75 16.6752 15.75C16.6691 15.75 16.6629 15.75 16.6567 15.75C16.6505 15.75 16.6443 15.75 16.638 15.75C16.6318 15.75 16.6256 15.75 16.6193 15.75C16.613 15.75 16.6068 15.75 16.6005 15.75C16.5942 15.75 16.5879 15.75 16.5815 15.75C16.5752 15.75 16.5689 15.75 16.5625 15.75C16.5561 15.75 16.5498 15.75 16.5434 15.75C16.537 15.75 16.5306 15.75 16.5241 15.75C16.5177 15.75 16.5113 15.75 16.5048 15.75C16.4983 15.75 16.4919 15.75 16.4854 15.75C16.4789 15.75 16.4724 15.75 16.4659 15.75C16.4593 15.75 16.4528 15.75 16.4462 15.75C16.4397 15.75 16.4331 15.75 16.4265 15.75C16.4199 15.75 16.4133 15.75 16.4067 15.75C16.4001 15.75 16.3935 15.75 16.3868 15.75C16.3802 15.75 16.3735 15.75 16.3668 15.75C16.3602 15.75 16.3535 15.75 16.3467 15.75C16.34 15.75 16.3333 15.75 16.3266 15.75C16.3198 15.75 16.3131 15.75 16.3063 15.75C16.2995 15.75 16.2927 15.75 16.2859 15.75C16.2791 15.75 16.2723 15.75 16.2655 15.75C16.2586 15.75 16.2518 15.75 16.2449 15.75C16.2381 15.75 16.2312 15.75 16.2243 15.75C16.2174 15.75 16.2105 15.75 16.2036 15.75C16.1966 15.75 16.1897 15.75 16.1827 15.75C16.1758 15.75 16.1688 15.75 16.1618 15.75C16.1548 15.75 16.1478 15.75 16.1408 15.75C16.1338 15.75 16.1268 15.75 16.1197 15.75C16.1127 15.75 16.1056 15.75 16.0986 15.75C16.0915 15.75 16.0844 15.75 16.0773 15.75C16.0702 15.75 16.0631 15.75 16.056 15.75C16.0488 15.75 16.0417 15.75 16.0345 15.75C16.0274 15.75 16.0202 15.75 16.013 15.75C16.0058 15.75 15.9986 15.75 15.9914 15.75C15.9842 15.75 15.9769 15.75 15.9697 15.75C15.9625 15.75 15.9552 15.75 15.9479 15.75C15.9407 15.75 15.9334 15.75 15.9261 15.75C15.9188 15.75 15.9115 15.75 15.9041 15.75C15.8968 15.75 15.8895 15.75 15.8821 15.75C15.8747 15.75 15.8674 15.75 15.86 15.75C15.8526 15.75 15.8452 15.75 15.8378 15.75C15.8304 15.75 15.823 15.75 15.8155 15.75C15.8081 15.75 15.8006 15.75 15.7932 15.75C15.7857 15.75 15.7782 15.75 15.7707 15.75C15.7632 15.75 15.7557 15.75 15.7482 15.75C15.7407 15.75 15.7331 15.75 15.7256 15.75C15.718 15.75 15.7105 15.75 15.7029 15.75C15.6953 15.75 15.6878 15.75 15.6802 15.75C15.6726 15.75 15.6649 15.75 15.6573 15.75C15.6497 15.75 15.6421 15.75 15.6344 15.75C15.6267 15.75 15.6191 15.75 15.6114 15.75C15.6037 15.75 15.596 15.75 15.5883 15.75C15.5806 15.75 15.5729 15.75 15.5652 15.75C15.5575 15.75 15.5497 15.75 15.542 15.75C15.5342 15.75 15.5264 15.75 15.5187 15.75C15.5109 15.75 15.5031 15.75 15.4953 15.75C15.4875 15.75 15.4797 15.75 15.4718 15.75C15.464 15.75 15.4561 15.75 15.4483 15.75C15.4404 15.75 15.4326 15.75 15.4247 15.75C15.4168 15.75 15.4089 15.75 15.401 15.75C15.3931 15.75 15.3852 15.75 15.3773 15.75C15.3693 15.75 15.3614 15.75 15.3534 15.75C15.3455 15.75 15.3375 15.75 15.3295 15.75C15.3216 15.75 15.3136 15.75 15.3056 15.75C15.2976 15.75 15.2896 15.75 15.2815 15.75C15.2735 15.75 15.2655 15.75 15.2574 15.75C15.2494 15.75 15.2413 15.75 15.2332 15.75C15.2252 15.75 15.2171 15.75 15.209 15.75C15.2009 15.75 15.1928 15.75 15.1847 15.75C15.1765 15.75 15.1684 15.75 15.1603 15.75C15.1521 15.75 15.144 15.75 15.1358 15.75C15.1276 15.75 15.1195 15.75 15.1113 15.75C15.1031 15.75 15.0949 15.75 15.0867 15.75C15.0785 15.75 15.0702 15.75 15.062 15.75C15.0538 15.75 15.0455 15.75 15.0373 15.75C15.029 15.75 15.0208 15.75 15.0125 15.75C15.0042 15.75 14.9959 15.75 14.9876 15.75C14.9793 15.75 14.971 15.75 14.9627 15.75C14.9544 15.75 14.946 15.75 14.9377 15.75C14.9293 15.75 14.921 15.75 14.9126 15.75C14.9043 15.75 14.8959 15.75 14.8875 15.75C14.8791 15.75 14.8707 15.75 14.8623 15.75C14.8539 15.75 14.8455 15.75 14.8371 15.75C14.8286 15.75 14.8202 15.75 14.8117 15.75C14.8033 15.75 14.7948 15.75 14.7864 15.75C14.7779 15.75 14.7694 15.75 14.7609 15.75C14.7524 15.75 14.7439 15.75 14.7354 15.75C14.7269 15.75 14.7184 15.75 14.7098 15.75C14.7013 15.75 14.6928 15.75 14.6842 15.75C14.6757 15.75 14.6671 15.75 14.6585 15.75C14.65 15.75 14.6414 15.75 14.6328 15.75C14.6242 15.75 14.6156 15.75 14.607 15.75C14.5984 15.75 14.5897 15.75 14.5811 15.75C14.5725 15.75 14.5638 15.75 14.5552 15.75C14.5465 15.75 14.5379 15.75 14.5292 15.75C14.5205 15.75 14.5118 15.75 14.5032 15.75C14.4945 15.75 14.4858 15.75 14.4771 15.75C14.4684 15.75 14.4596 15.75 14.4509 15.75C14.4422 15.75 14.4334 15.75 14.4247 15.75C14.4159 15.75 14.4072 15.75 14.3984 15.75C14.3897 15.75 14.3809 15.75 14.3721 15.75C14.3633 15.75 14.3545 15.75 14.3457 15.75C14.3369 15.75 14.3281 15.75 14.3193 15.75C14.3105 15.75 14.3016 15.75 14.2928 15.75C14.284 15.75 14.2751 15.75 14.2663 15.75C14.2574 15.75 14.2486 15.75 14.2397 15.75C14.2308 15.75 14.2219 15.75 14.213 15.75C14.2041 15.75 14.1952 15.75 14.1863 15.75C14.1774 15.75 14.1685 15.75 14.1596 15.75C14.1507 15.75 14.1417 15.75 14.1328 15.75C14.1238 15.75 14.1149 15.75 14.1059 15.75C14.097 15.75 14.088 15.75 14.079 15.75C14.0701 15.75 14.0611 15.75 14.0521 15.75C14.0431 15.75 14.0341 15.75 14.0251 15.75C14.0161 15.75 14.007 15.75 13.998 15.75C13.989 15.75 13.98 15.75 13.9709 15.75C13.9619 15.75 13.9528 15.75 13.9438 15.75C13.9347 15.75 13.9256 15.75 13.9166 15.75C13.9075 15.75 13.8984 15.75 13.8893 15.75C13.8802 15.75 13.8711 15.75 13.862 15.75C13.8529 15.75 13.8438 15.75 13.8347 15.75C13.8256 15.75 13.8165 15.75 13.8073 15.75C13.7982 15.75 13.789 15.75 13.7799 15.75C13.7707 15.75 13.7616 15.75 13.7524 15.75C13.7433 15.75 13.7341 15.75 13.7249 15.75C13.7157 15.75 13.7065 15.75 13.6973 15.75C13.6881 15.75 13.6789 15.75 13.6697 15.75C13.6605 15.75 13.6513 15.75 13.6421 15.75C13.6329 15.75 13.6236 15.75 13.6144 15.75C13.6052 15.75 13.5959 15.75 13.5867 15.75C13.5774 15.75 13.5681 15.75 13.5589 15.75C13.5496 15.75 13.5403 15.75 13.5311 15.75C13.5218 15.75 13.5125 15.75 13.5032 15.75C13.4939 15.75 13.4846 15.75 13.4753 15.75C13.466 15.75 13.4567 15.75 13.4474 15.75C13.438 15.75 13.4287 15.75 13.4194 15.75C13.41 15.75 13.4007 15.75 13.3914 15.75C13.382 15.75 13.3727 15.75 13.3633 15.75C13.3539 15.75 13.3446 15.75 13.3352 15.75C13.3258 15.75 13.3165 15.75 13.3071 15.75C13.2977 15.75 13.2883 15.75 13.2789 15.75C13.2695 15.75 13.2601 15.75 13.2507 15.75C13.2413 15.75 13.2319 15.75 13.2224 15.75C13.213 15.75 13.2036 15.75 13.1942 15.75C13.1847 15.75 13.1753 15.75 13.1659 15.75C13.1564 15.75 13.147 15.75 13.1375 15.75C13.128 15.75 13.1186 15.75 13.1091 15.75C13.0996 15.75 13.0902 15.75 13.0807 15.75C13.0712 15.75 13.0617 15.75 13.0522 15.75C13.0427 15.75 13.0333 15.75 13.0238 15.75C13.0142 15.75 13.0047 15.75 12.9952 15.75C12.9857 15.75 12.9762 15.75 12.9667 15.75C12.9572 15.75 12.9476 15.75 12.9381 15.75C12.9286 15.75 12.919 15.75 12.9095 15.75C12.8999 15.75 12.8904 15.75 12.8808 15.75C12.8713 15.75 12.8617 15.75 12.8521 15.75C12.8426 15.75 12.833 15.75 12.8234 15.75C12.8139 15.75 12.8043 15.75 12.7947 15.75C12.7851 15.75 12.7755 15.75 12.7659 15.75C12.7563 15.75 12.7467 15.75 12.7371 15.75C12.7275 15.75 12.7179 15.75 12.7083 15.75C12.6987 15.75 12.6891 15.75 12.6795 15.75C12.6698 15.75 12.6602 15.75 12.6506 15.75C12.6409 15.75 12.6313 15.75 12.6217 15.75C12.612 15.75 12.6024 15.75 12.5927 15.75C12.5831 15.75 12.5734 15.75 12.5638 15.75C12.5541 15.75 12.5445 15.75 12.5348 15.75C12.5251 15.75 12.5155 15.75 12.5058 15.75C12.4961 15.75 12.4864 15.75 12.4767 15.75C12.4671 15.75 12.4574 15.75 12.4477 15.75C12.438 15.75 12.4283 15.75 12.4186 15.75C12.4089 15.75 12.3992 15.75 12.3895 15.75C12.3798 15.75 12.3701 15.75 12.3604 15.75C12.3506 15.75 12.3409 15.75 12.3312 15.75C12.3215 15.75 12.3118 15.75 12.302 15.75C12.2923 15.75 12.2826 15.75 12.2728 15.75C12.2631 15.75 12.2534 15.75 12.2436 15.75C12.2339 15.75 12.2241 15.75 12.2144 15.75C12.2046 15.75 12.1949 15.75 12.1851 15.75C12.1754 15.75 12.1656 15.75 12.1558 15.75C12.1461 15.75 12.1363 15.75 12.1265 15.75C12.1168 15.75 12.107 15.75 12.0972 15.75C12.0875 15.75 12.0777 15.75 12.0679 15.75C12.0581 15.75 12.0483 15.75 12.0385 15.75C12.0288 15.75 12.019 15.75 12.0092 15.75C11.9994 15.75 11.9896 15.75 11.9798 15.75C11.97 15.75 11.9602 15.75 11.9504 15.75C11.9406 15.75 11.9308 15.75 11.921 15.75C11.9111 15.75 11.9013 15.75 11.8915 15.75C11.8817 15.75 11.8719 15.75 11.8621 15.75C11.8522 15.75 11.8424 15.75 11.8326 15.75C11.8228 15.75 11.8129 15.75 11.8031 15.75C11.7933 15.75 11.7835 15.75 11.7736 15.75C11.7638 15.75 11.754 15.75 11.7441 15.75C11.7343 15.75 11.7244 15.75 11.7146 15.75C11.7047 15.75 11.6949 15.75 11.6851 15.75C11.6752 15.75 11.6654 15.75 11.6555 15.75C11.6457 15.75 11.6358 15.75 11.626 15.75C11.6161 15.75 11.6062 15.75 11.5964 15.75C11.5865 15.75 11.5767 15.75 11.5668 15.75C11.5569 15.75 11.5471 15.75 11.5372 15.75C11.5273 15.75 11.5175 15.75 11.5076 15.75C11.4977 15.75 11.4879 15.75 11.478 15.75C11.4681 15.75 11.4583 15.75 11.4484 15.75C11.4385 15.75 11.4286 15.75 11.4188 15.75C11.4089 15.75 11.399 15.75 11.3891 15.75C11.3792 15.75 11.3694 15.75 11.3595 15.75C11.3496 15.75 11.3397 15.75 11.3298 15.75C11.3199 15.75 11.3101 15.75 11.3002 15.75C11.2903 15.75 11.2804 15.75 11.2705 15.75C11.2606 15.75 11.2507 15.75 11.2408 15.75C11.2309 15.75 11.2211 15.75 11.2112 15.75C11.2013 15.75 11.1914 15.75 11.1815 15.75C11.1716 15.75 11.1617 15.75 11.1518 15.75C11.1419 15.75 11.132 15.75 11.1221 15.75C11.1122 15.75 11.1023 15.75 11.0924 15.75C11.0825 15.75 11.0726 15.75 11.0627 15.75C11.0528 15.75 11.0429 15.75 11.033 15.75C11.0231 15.75 11.0132 15.75 11.0033 15.75C10.9934 15.75 10.9835 15.75 10.9736 15.75C10.9637 15.75 10.9538 15.75 10.9439 15.75C10.934 15.75 10.9241 15.75 10.9142 15.75C10.9043 15.75 10.8944 15.75 10.8845 15.75C10.8746 15.75 10.8647 15.75 10.8548 15.75C10.8449 15.75 10.835 15.75 10.8251 15.75C10.8152 15.75 10.8053 15.75 10.7954 15.75C10.7855 15.75 10.7756 15.75 10.7657 15.75C10.7558 15.75 10.7459 15.75 10.736 15.75C10.7261 15.75 10.7162 15.75 10.7063 15.75C10.6964 15.75 10.6865 15.75 10.6766 15.75C10.6667 15.75 10.6568 15.75 10.6469 15.75C10.637 15.75 10.6271 15.75 10.6172 15.75C10.6074 15.75 10.5975 15.75 10.5876 15.75C10.5777 15.75 10.5678 15.75 10.5579 15.75C10.548 15.75 10.5381 15.75 10.5282 15.75C10.5183 15.75 10.5084 15.75 10.4985 15.75C10.4887 15.75 10.4788 15.75 10.4689 15.75C10.459 15.75 10.4491 15.75 10.4392 15.75C10.4293 15.75 10.4195 15.75 10.4096 15.75C10.3997 15.75 10.3898 15.75 10.3799 15.75C10.3701 15.75 10.3602 15.75 10.3503 15.75C10.3404 15.75 10.3306 15.75 10.3207 15.75C10.3108 15.75 10.3009 15.75 10.2911 15.75C10.2812 15.75 10.2713 15.75 10.2615 15.75C10.2516 15.75 10.2417 15.75 10.2319 15.75C10.222 15.75 10.2121 15.75 10.2023 15.75C10.1924 15.75 10.1825 15.75 10.1727 15.75C10.1628 15.75 10.153 15.75 10.1431 15.75C10.1333 15.75 10.1234 15.75 10.1136 15.75C10.1037 15.75 10.0939 15.75 10.084 15.75C10.0742 15.75 10.0643 15.75 10.0545 15.75C10.0447 15.75 10.0348 15.75 10.025 15.75C10.0151 15.75 10.0053 15.75 9.99547 15.75C9.98564 15.75 9.9758 15.75 9.96598 15.75C9.95615 15.75 9.94632 15.75 9.9365 15.75C9.92668 15.75 9.91685 15.75 9.90704 15.75C9.89722 15.75 9.8874 15.75 9.87759 15.75C9.86777 15.75 9.85796 15.75 9.84815 15.75C9.83835 15.75 9.82854 15.75 9.81874 15.75C9.80893 15.75 9.79913 15.75 9.78934 15.75C9.77954 15.75 9.76974 15.75 9.75995 15.75C9.75016 15.75 9.74037 15.75 9.73058 15.75C9.7208 15.75 9.71102 15.75 9.70123 15.75C9.69145 15.75 9.68168 15.75 9.6719 15.75C9.66213 15.75 9.65236 15.75 9.64259 15.75C9.63282 15.75 9.62306 15.75 9.6133 15.75C9.60354 15.75 9.59378 15.75 9.58402 15.75C9.57427 15.75 9.56452 15.75 9.55477 15.75C9.54502 15.75 9.53528 15.75 9.52554 15.75C9.51579 15.75 9.50606 15.75 9.49632 15.75C9.48659 15.75 9.47686 15.75 9.46713 15.75C9.4574 15.75 9.44768 15.75 9.43796 15.75C9.42824 15.75 9.41852 15.75 9.40881 15.75C9.3991 15.75 9.38939 15.75 9.37969 15.75C9.36998 15.75 9.36028 15.75 9.35059 15.75C9.34089 15.75 9.3312 15.75 9.32151 15.75C9.31182 15.75 9.30213 15.75 9.29245 15.75C9.28277 15.75 9.27309 15.75 9.26342 15.75C9.25375 15.75 9.24408 15.75 9.23442 15.75C9.22475 15.75 9.21509 15.75 9.20544 15.75C9.19578 15.75 9.18613 15.75 9.17648 15.75C9.16684 15.75 9.15719 15.75 9.14755 15.75C9.13792 15.75 9.12828 15.75 9.11865 15.75C9.10902 15.75 9.0994 15.75 9.08978 15.75C9.08016 15.75 9.07054 15.75 9.06093 15.75C9.05132 15.75 9.04172 15.75 9.03211 15.75C9.02251 15.75 9.01292 15.75 9.00332 15.75C8.99373 15.75 8.98415 15.75 8.97456 15.75C8.96498 15.75 8.9554 15.75 8.94583 15.75C8.93626 15.75 8.92669 15.75 8.91713 15.75C8.90757 15.75 8.89801 15.75 8.88846 15.75C8.87891 15.75 8.86936 15.75 8.85982 15.75C8.85028 15.75 8.84074 15.75 8.83121 15.75C8.82168 15.75 8.81215 15.75 8.80263 15.75C8.79311 15.75 8.78359 15.75 8.77408 15.75C8.76457 15.75 8.75507 15.75 8.74557 15.75C8.73607 15.75 8.72658 15.75 8.71709 15.75C8.7076 15.75 8.69812 15.75 8.68864 15.75C8.67917 15.75 8.6697 15.75 8.66023 15.75C8.65077 15.75 8.64131 15.75 8.63185 15.75C8.6224 15.75 8.61295 15.75 8.60351 15.75C8.59407 15.75 8.58463 15.75 8.5752 15.75C8.56577 15.75 8.55635 15.75 8.54693 15.75C8.53751 15.75 8.5281 15.75 8.51869 15.75C8.50929 15.75 8.49989 15.75 8.49049 15.75C8.4811 15.75 8.47171 15.75 8.46233 15.75C8.45295 15.75 8.44357 15.75 8.4342 15.75C8.42483 15.75 8.41547 15.75 8.40612 15.75C8.39676 15.75 8.38741 15.75 8.37807 15.75C8.36872 15.75 8.35939 15.75 8.35006 15.75C8.34073 15.75 8.3314 15.75 8.32209 15.75C8.31277 15.75 8.30346 15.75 8.29416 15.75C8.28485 15.75 8.27556 15.75 8.26627 15.75C8.25698 15.75 8.24769 15.75 8.23842 15.75C8.22914 15.75 8.21987 15.75 8.21061 15.75C8.20134 15.75 8.19209 15.75 8.18284 15.75C8.17359 15.75 8.16435 15.75 8.15511 15.75C8.14588 15.75 8.13665 15.75 8.12743 15.75C8.11821 15.75 8.109 15.75 8.09979 15.75C8.09059 15.75 8.08139 15.75 8.0722 15.75C8.063 15.75 8.05382 15.75 8.04464 15.75C8.03547 15.75 8.0263 15.75 8.01714 15.75C8.00797 15.75 7.99882 15.75 7.98967 15.75C7.98053 15.75 7.97139 15.75 7.96225 15.75C7.95312 15.75 7.944 15.75 7.93488 15.75C7.92577 15.75 7.91666 15.75 7.90756 15.75C7.89845 15.75 7.88936 15.75 7.88028 15.75C7.87119 15.75 7.86211 15.75 7.85304 15.75C7.84397 15.75 7.83491 15.75 7.82586 15.75C7.8168 15.75 7.80776 15.75 7.79872 15.75C7.78968 15.75 7.78065 15.75 7.77163 15.75C7.76261 15.75 7.7536 15.75 7.74459 15.75C7.73558 15.75 7.72659 15.75 7.7176 15.75C7.70861 15.75 7.69963 15.75 7.69066 15.75C7.68169 15.75 7.67272 15.75 7.66377 15.75C7.65481 15.75 7.64586 15.75 7.63693 15.75C7.62799 15.75 7.61906 15.75 7.61014 15.75C7.60122 15.75 7.5923 15.75 7.5834 15.75C7.57449 15.75 7.5656 15.75 7.55671 15.75C7.54783 15.75 7.53895 15.75 7.53008 15.75C7.52121 15.75 7.51235 15.75 7.5035 15.75C7.49465 15.75 7.4858 15.75 7.47697 15.75C7.46814 15.75 7.45931 15.75 7.4505 15.75C7.44168 15.75 7.43288 15.75 7.42408 15.75C7.41528 15.75 7.40649 15.75 7.39771 15.75C7.38893 15.75 7.38016 15.75 7.3714 15.75C7.36264 15.75 7.35389 15.75 7.34515 15.75C7.33641 15.75 7.32768 15.75 7.31895 15.75C7.31023 15.75 7.30152 15.75 7.29281 15.75C7.28411 15.75 7.27541 15.75 7.26673 15.75C7.25804 15.75 7.24937 15.75 7.2407 15.75C7.23203 15.75 7.22338 15.75 7.21473 15.75C7.20608 15.75 7.19745 15.75 7.18882 15.75C7.18019 15.75 7.17157 15.75 7.16297 15.75C7.15436 15.75 7.14576 15.75 7.13717 15.75C7.12859 15.75 7.12001 15.75 7.11144 15.75C7.10287 15.75 7.09432 15.75 7.08577 15.75C7.07722 15.75 7.06868 15.75 7.06015 15.75C7.05163 15.75 7.04311 15.75 7.0346 15.75C7.0261 15.75 7.0176 15.75 7.00911 15.75C7.00063 15.75 6.99215 15.75 6.98368 15.75C6.97522 15.75 6.96676 15.75 6.95832 15.75C6.94987 15.75 6.94144 15.75 6.93302 15.75C6.92459 15.75 6.91618 15.75 6.90778 15.75C6.89937 15.75 6.89098 15.75 6.8826 15.75C6.87422 15.75 6.86585 15.75 6.85749 15.75C6.84913 15.75 6.84078 15.75 6.83244 15.75C6.8241 15.75 6.81577 15.75 6.80746 15.75C6.79914 15.75 6.79084 15.75 6.78254 15.75C6.77425 15.75 6.76596 15.75 6.75769 15.75C6.74942 15.75 6.74116 15.75 6.73291 15.75C6.72466 15.75 6.71642 15.75 6.70819 15.75C6.69996 15.75 6.69174 15.75 6.68354 15.75C6.67533 15.75 6.66714 15.75 6.65896 15.75C6.65077 15.75 6.6426 15.75 6.63444 15.75C6.62628 15.75 6.61813 15.75 6.61 15.75C6.60186 15.75 6.59373 15.75 6.58562 15.75C6.57751 15.75 6.5694 15.75 6.56131 15.75C6.55322 15.75 6.54514 15.75 6.53708 15.75C6.52901 15.75 6.52095 15.75 6.51291 15.75C6.50487 15.75 6.49683 15.75 6.48881 15.75C6.4808 15.75 6.47279 15.75 6.46479 15.75C6.45679 15.75 6.44881 15.75 6.44084 15.75C6.43287 15.75 6.42491 15.75 6.41696 15.75C6.40901 15.75 6.40108 15.75 6.39315 15.75C6.38523 15.75 6.37732 15.75 6.36942 15.75C6.36152 15.75 6.35363 15.75 6.34576 15.75C6.33788 15.75 6.33002 15.75 6.32217 15.75C6.31432 15.75 6.30649 15.75 6.29866 15.75C6.29084 15.75 6.28302 15.75 6.27522 15.75C6.26742 15.75 6.25964 15.75 6.25186 15.75C6.24409 15.75 6.23633 15.75 6.22858 15.75C6.22083 15.75 6.21309 15.75 6.20537 15.75C6.19765 15.75 6.18993 15.75 6.18224 15.75C6.17454 15.75 6.16685 15.75 6.15918 15.75C6.15151 15.75 6.14385 15.75 6.13621 15.75C6.12856 15.75 6.12093 15.75 6.11331 15.75C6.10569 15.75 6.09808 15.75 6.09049 15.75C6.08289 15.75 6.07531 15.75 6.06774 15.75C6.06018 15.75 6.05262 15.75 6.04508 15.75C6.03754 15.75 6.03002 15.75 6.0225 15.75C6.01499 15.75 6.00749 15.75 6 15.75V17.25C6.00749 17.25 6.01499 17.25 6.0225 17.25C6.03002 17.25 6.03754 17.25 6.04508 17.25C6.05262 17.25 6.06018 17.25 6.06774 17.25C6.07531 17.25 6.08289 17.25 6.09049 17.25C6.09808 17.25 6.10569 17.25 6.11331 17.25C6.12093 17.25 6.12856 17.25 6.13621 17.25C6.14385 17.25 6.15151 17.25 6.15918 17.25C6.16685 17.25 6.17454 17.25 6.18224 17.25C6.18993 17.25 6.19765 17.25 6.20537 17.25C6.21309 17.25 6.22083 17.25 6.22858 17.25C6.23633 17.25 6.24409 17.25 6.25186 17.25C6.25964 17.25 6.26742 17.25 6.27522 17.25C6.28302 17.25 6.29084 17.25 6.29866 17.25C6.30649 17.25 6.31432 17.25 6.32217 17.25C6.33002 17.25 6.33788 17.25 6.34576 17.25C6.35363 17.25 6.36152 17.25 6.36942 17.25C6.37732 17.25 6.38523 17.25 6.39315 17.25C6.40108 17.25 6.40901 17.25 6.41696 17.25C6.42491 17.25 6.43287 17.25 6.44084 17.25C6.44881 17.25 6.45679 17.25 6.46479 17.25C6.47279 17.25 6.4808 17.25 6.48881 17.25C6.49683 17.25 6.50487 17.25 6.51291 17.25C6.52095 17.25 6.52901 17.25 6.53708 17.25C6.54514 17.25 6.55322 17.25 6.56131 17.25C6.5694 17.25 6.57751 17.25 6.58562 17.25C6.59373 17.25 6.60186 17.25 6.61 17.25C6.61813 17.25 6.62628 17.25 6.63444 17.25C6.6426 17.25 6.65077 17.25 6.65896 17.25C6.66714 17.25 6.67533 17.25 6.68354 17.25C6.69174 17.25 6.69996 17.25 6.70819 17.25C6.71642 17.25 6.72466 17.25 6.73291 17.25C6.74116 17.25 6.74942 17.25 6.75769 17.25C6.76596 17.25 6.77425 17.25 6.78254 17.25C6.79084 17.25 6.79914 17.25 6.80746 17.25C6.81577 17.25 6.8241 17.25 6.83244 17.25C6.84078 17.25 6.84913 17.25 6.85749 17.25C6.86585 17.25 6.87422 17.25 6.8826 17.25C6.89098 17.25 6.89937 17.25 6.90778 17.25C6.91618 17.25 6.92459 17.25 6.93302 17.25C6.94144 17.25 6.94987 17.25 6.95832 17.25C6.96676 17.25 6.97522 17.25 6.98368 17.25C6.99215 17.25 7.00063 17.25 7.00911 17.25C7.0176 17.25 7.0261 17.25 7.0346 17.25C7.04311 17.25 7.05163 17.25 7.06015 17.25C7.06868 17.25 7.07722 17.25 7.08577 17.25C7.09432 17.25 7.10287 17.25 7.11144 17.25C7.12001 17.25 7.12859 17.25 7.13717 17.25C7.14576 17.25 7.15436 17.25 7.16297 17.25C7.17157 17.25 7.18019 17.25 7.18882 17.25C7.19745 17.25 7.20608 17.25 7.21473 17.25C7.22338 17.25 7.23203 17.25 7.2407 17.25C7.24937 17.25 7.25804 17.25 7.26673 17.25C7.27541 17.25 7.28411 17.25 7.29281 17.25C7.30152 17.25 7.31023 17.25 7.31895 17.25C7.32768 17.25 7.33641 17.25 7.34515 17.25C7.35389 17.25 7.36264 17.25 7.3714 17.25C7.38016 17.25 7.38893 17.25 7.39771 17.25C7.40649 17.25 7.41528 17.25 7.42408 17.25C7.43288 17.25 7.44168 17.25 7.4505 17.25C7.45931 17.25 7.46814 17.25 7.47697 17.25C7.4858 17.25 7.49465 17.25 7.5035 17.25C7.51235 17.25 7.52121 17.25 7.53008 17.25C7.53895 17.25 7.54783 17.25 7.55671 17.25C7.5656 17.25 7.57449 17.25 7.5834 17.25C7.5923 17.25 7.60122 17.25 7.61014 17.25C7.61906 17.25 7.62799 17.25 7.63693 17.25C7.64586 17.25 7.65481 17.25 7.66377 17.25C7.67272 17.25 7.68169 17.25 7.69066 17.25C7.69963 17.25 7.70861 17.25 7.7176 17.25C7.72659 17.25 7.73558 17.25 7.74459 17.25C7.7536 17.25 7.76261 17.25 7.77163 17.25C7.78065 17.25 7.78968 17.25 7.79872 17.25C7.80776 17.25 7.8168 17.25 7.82586 17.25C7.83491 17.25 7.84397 17.25 7.85304 17.25C7.86211 17.25 7.87119 17.25 7.88028 17.25C7.88936 17.25 7.89845 17.25 7.90756 17.25C7.91666 17.25 7.92577 17.25 7.93488 17.25C7.944 17.25 7.95312 17.25 7.96225 17.25C7.97139 17.25 7.98053 17.25 7.98967 17.25C7.99882 17.25 8.00797 17.25 8.01714 17.25C8.0263 17.25 8.03547 17.25 8.04464 17.25C8.05382 17.25 8.063 17.25 8.0722 17.25C8.08139 17.25 8.09059 17.25 8.09979 17.25C8.109 17.25 8.11821 17.25 8.12743 17.25C8.13665 17.25 8.14588 17.25 8.15511 17.25C8.16435 17.25 8.17359 17.25 8.18284 17.25C8.19209 17.25 8.20134 17.25 8.21061 17.25C8.21987 17.25 8.22914 17.25 8.23842 17.25C8.24769 17.25 8.25698 17.25 8.26627 17.25C8.27556 17.25 8.28485 17.25 8.29416 17.25C8.30346 17.25 8.31277 17.25 8.32209 17.25C8.3314 17.25 8.34073 17.25 8.35006 17.25C8.35939 17.25 8.36872 17.25 8.37807 17.25C8.38741 17.25 8.39676 17.25 8.40612 17.25C8.41547 17.25 8.42483 17.25 8.4342 17.25C8.44357 17.25 8.45295 17.25 8.46233 17.25C8.47171 17.25 8.4811 17.25 8.49049 17.25C8.49989 17.25 8.50929 17.25 8.51869 17.25C8.5281 17.25 8.53751 17.25 8.54693 17.25C8.55635 17.25 8.56577 17.25 8.5752 17.25C8.58463 17.25 8.59407 17.25 8.60351 17.25C8.61295 17.25 8.6224 17.25 8.63185 17.25C8.64131 17.25 8.65077 17.25 8.66023 17.25C8.6697 17.25 8.67917 17.25 8.68864 17.25C8.69812 17.25 8.7076 17.25 8.71709 17.25C8.72658 17.25 8.73607 17.25 8.74557 17.25C8.75507 17.25 8.76457 17.25 8.77408 17.25C8.78359 17.25 8.79311 17.25 8.80263 17.25C8.81215 17.25 8.82168 17.25 8.83121 17.25C8.84074 17.25 8.85028 17.25 8.85982 17.25C8.86936 17.25 8.87891 17.25 8.88846 17.25C8.89801 17.25 8.90757 17.25 8.91713 17.25C8.92669 17.25 8.93626 17.25 8.94583 17.25C8.9554 17.25 8.96498 17.25 8.97456 17.25C8.98415 17.25 8.99373 17.25 9.00332 17.25C9.01292 17.25 9.02251 17.25 9.03211 17.25C9.04172 17.25 9.05132 17.25 9.06093 17.25C9.07054 17.25 9.08016 17.25 9.08978 17.25C9.0994 17.25 9.10902 17.25 9.11865 17.25C9.12828 17.25 9.13792 17.25 9.14755 17.25C9.15719 17.25 9.16684 17.25 9.17648 17.25C9.18613 17.25 9.19578 17.25 9.20544 17.25C9.21509 17.25 9.22475 17.25 9.23442 17.25C9.24408 17.25 9.25375 17.25 9.26342 17.25C9.27309 17.25 9.28277 17.25 9.29245 17.25C9.30213 17.25 9.31182 17.25 9.32151 17.25C9.3312 17.25 9.34089 17.25 9.35059 17.25C9.36028 17.25 9.36998 17.25 9.37969 17.25C9.38939 17.25 9.3991 17.25 9.40881 17.25C9.41852 17.25 9.42824 17.25 9.43796 17.25C9.44768 17.25 9.4574 17.25 9.46713 17.25C9.47686 17.25 9.48659 17.25 9.49632 17.25C9.50606 17.25 9.51579 17.25 9.52554 17.25C9.53528 17.25 9.54502 17.25 9.55477 17.25C9.56452 17.25 9.57427 17.25 9.58402 17.25C9.59378 17.25 9.60354 17.25 9.6133 17.25C9.62306 17.25 9.63282 17.25 9.64259 17.25C9.65236 17.25 9.66213 17.25 9.6719 17.25C9.68168 17.25 9.69145 17.25 9.70123 17.25C9.71102 17.25 9.7208 17.25 9.73058 17.25C9.74037 17.25 9.75016 17.25 9.75995 17.25C9.76974 17.25 9.77954 17.25 9.78934 17.25C9.79913 17.25 9.80893 17.25 9.81874 17.25C9.82854 17.25 9.83835 17.25 9.84815 17.25C9.85796 17.25 9.86777 17.25 9.87759 17.25C9.8874 17.25 9.89722 17.25 9.90704 17.25C9.91685 17.25 9.92668 17.25 9.9365 17.25C9.94632 17.25 9.95615 17.25 9.96598 17.25C9.9758 17.25 9.98564 17.25 9.99547 17.25C10.0053 17.25 10.0151 17.25 10.025 17.25C10.0348 17.25 10.0447 17.25 10.0545 17.25C10.0643 17.25 10.0742 17.25 10.084 17.25C10.0939 17.25 10.1037 17.25 10.1136 17.25C10.1234 17.25 10.1333 17.25 10.1431 17.25C10.153 17.25 10.1628 17.25 10.1727 17.25C10.1825 17.25 10.1924 17.25 10.2023 17.25C10.2121 17.25 10.222 17.25 10.2319 17.25C10.2417 17.25 10.2516 17.25 10.2615 17.25C10.2713 17.25 10.2812 17.25 10.2911 17.25C10.3009 17.25 10.3108 17.25 10.3207 17.25C10.3306 17.25 10.3404 17.25 10.3503 17.25C10.3602 17.25 10.3701 17.25 10.3799 17.25C10.3898 17.25 10.3997 17.25 10.4096 17.25C10.4195 17.25 10.4293 17.25 10.4392 17.25C10.4491 17.25 10.459 17.25 10.4689 17.25C10.4788 17.25 10.4887 17.25 10.4985 17.25C10.5084 17.25 10.5183 17.25 10.5282 17.25C10.5381 17.25 10.548 17.25 10.5579 17.25C10.5678 17.25 10.5777 17.25 10.5876 17.25C10.5975 17.25 10.6074 17.25 10.6172 17.25C10.6271 17.25 10.637 17.25 10.6469 17.25C10.6568 17.25 10.6667 17.25 10.6766 17.25C10.6865 17.25 10.6964 17.25 10.7063 17.25C10.7162 17.25 10.7261 17.25 10.736 17.25C10.7459 17.25 10.7558 17.25 10.7657 17.25C10.7756 17.25 10.7855 17.25 10.7954 17.25C10.8053 17.25 10.8152 17.25 10.8251 17.25C10.835 17.25 10.8449 17.25 10.8548 17.25C10.8647 17.25 10.8746 17.25 10.8845 17.25C10.8944 17.25 10.9043 17.25 10.9142 17.25C10.9241 17.25 10.934 17.25 10.9439 17.25C10.9538 17.25 10.9637 17.25 10.9736 17.25C10.9835 17.25 10.9934 17.25 11.0033 17.25C11.0132 17.25 11.0231 17.25 11.033 17.25C11.0429 17.25 11.0528 17.25 11.0627 17.25C11.0726 17.25 11.0825 17.25 11.0924 17.25C11.1023 17.25 11.1122 17.25 11.1221 17.25C11.132 17.25 11.1419 17.25 11.1518 17.25C11.1617 17.25 11.1716 17.25 11.1815 17.25C11.1914 17.25 11.2013 17.25 11.2112 17.25C11.2211 17.25 11.2309 17.25 11.2408 17.25C11.2507 17.25 11.2606 17.25 11.2705 17.25C11.2804 17.25 11.2903 17.25 11.3002 17.25C11.3101 17.25 11.3199 17.25 11.3298 17.25C11.3397 17.25 11.3496 17.25 11.3595 17.25C11.3694 17.25 11.3792 17.25 11.3891 17.25C11.399 17.25 11.4089 17.25 11.4188 17.25C11.4286 17.25 11.4385 17.25 11.4484 17.25C11.4583 17.25 11.4681 17.25 11.478 17.25C11.4879 17.25 11.4977 17.25 11.5076 17.25C11.5175 17.25 11.5273 17.25 11.5372 17.25C11.5471 17.25 11.5569 17.25 11.5668 17.25C11.5767 17.25 11.5865 17.25 11.5964 17.25C11.6062 17.25 11.6161 17.25 11.626 17.25C11.6358 17.25 11.6457 17.25 11.6555 17.25C11.6654 17.25 11.6752 17.25 11.6851 17.25C11.6949 17.25 11.7047 17.25 11.7146 17.25C11.7244 17.25 11.7343 17.25 11.7441 17.25C11.754 17.25 11.7638 17.25 11.7736 17.25C11.7835 17.25 11.7933 17.25 11.8031 17.25C11.8129 17.25 11.8228 17.25 11.8326 17.25C11.8424 17.25 11.8522 17.25 11.8621 17.25C11.8719 17.25 11.8817 17.25 11.8915 17.25C11.9013 17.25 11.9111 17.25 11.921 17.25C11.9308 17.25 11.9406 17.25 11.9504 17.25C11.9602 17.25 11.97 17.25 11.9798 17.25C11.9896 17.25 11.9994 17.25 12.0092 17.25C12.019 17.25 12.0288 17.25 12.0385 17.25C12.0483 17.25 12.0581 17.25 12.0679 17.25C12.0777 17.25 12.0875 17.25 12.0972 17.25C12.107 17.25 12.1168 17.25 12.1265 17.25C12.1363 17.25 12.1461 17.25 12.1558 17.25C12.1656 17.25 12.1754 17.25 12.1851 17.25C12.1949 17.25 12.2046 17.25 12.2144 17.25C12.2241 17.25 12.2339 17.25 12.2436 17.25C12.2534 17.25 12.2631 17.25 12.2728 17.25C12.2826 17.25 12.2923 17.25 12.302 17.25C12.3118 17.25 12.3215 17.25 12.3312 17.25C12.3409 17.25 12.3506 17.25 12.3604 17.25C12.3701 17.25 12.3798 17.25 12.3895 17.25C12.3992 17.25 12.4089 17.25 12.4186 17.25C12.4283 17.25 12.438 17.25 12.4477 17.25C12.4574 17.25 12.4671 17.25 12.4767 17.25C12.4864 17.25 12.4961 17.25 12.5058 17.25C12.5155 17.25 12.5251 17.25 12.5348 17.25C12.5445 17.25 12.5541 17.25 12.5638 17.25C12.5734 17.25 12.5831 17.25 12.5927 17.25C12.6024 17.25 12.612 17.25 12.6217 17.25C12.6313 17.25 12.6409 17.25 12.6506 17.25C12.6602 17.25 12.6698 17.25 12.6795 17.25C12.6891 17.25 12.6987 17.25 12.7083 17.25C12.7179 17.25 12.7275 17.25 12.7371 17.25C12.7467 17.25 12.7563 17.25 12.7659 17.25C12.7755 17.25 12.7851 17.25 12.7947 17.25C12.8043 17.25 12.8139 17.25 12.8234 17.25C12.833 17.25 12.8426 17.25 12.8521 17.25C12.8617 17.25 12.8713 17.25 12.8808 17.25C12.8904 17.25 12.8999 17.25 12.9095 17.25C12.919 17.25 12.9286 17.25 12.9381 17.25C12.9476 17.25 12.9572 17.25 12.9667 17.25C12.9762 17.25 12.9857 17.25 12.9952 17.25C13.0047 17.25 13.0142 17.25 13.0238 17.25C13.0333 17.25 13.0427 17.25 13.0522 17.25C13.0617 17.25 13.0712 17.25 13.0807 17.25C13.0902 17.25 13.0996 17.25 13.1091 17.25C13.1186 17.25 13.128 17.25 13.1375 17.25C13.147 17.25 13.1564 17.25 13.1659 17.25C13.1753 17.25 13.1847 17.25 13.1942 17.25C13.2036 17.25 13.213 17.25 13.2224 17.25C13.2319 17.25 13.2413 17.25 13.2507 17.25C13.2601 17.25 13.2695 17.25 13.2789 17.25C13.2883 17.25 13.2977 17.25 13.3071 17.25C13.3165 17.25 13.3258 17.25 13.3352 17.25C13.3446 17.25 13.3539 17.25 13.3633 17.25C13.3727 17.25 13.382 17.25 13.3914 17.25C13.4007 17.25 13.41 17.25 13.4194 17.25C13.4287 17.25 13.438 17.25 13.4474 17.25C13.4567 17.25 13.466 17.25 13.4753 17.25C13.4846 17.25 13.4939 17.25 13.5032 17.25C13.5125 17.25 13.5218 17.25 13.5311 17.25C13.5403 17.25 13.5496 17.25 13.5589 17.25C13.5681 17.25 13.5774 17.25 13.5867 17.25C13.5959 17.25 13.6052 17.25 13.6144 17.25C13.6236 17.25 13.6329 17.25 13.6421 17.25C13.6513 17.25 13.6605 17.25 13.6697 17.25C13.6789 17.25 13.6881 17.25 13.6973 17.25C13.7065 17.25 13.7157 17.25 13.7249 17.25C13.7341 17.25 13.7433 17.25 13.7524 17.25C13.7616 17.25 13.7707 17.25 13.7799 17.25C13.789 17.25 13.7982 17.25 13.8073 17.25C13.8165 17.25 13.8256 17.25 13.8347 17.25C13.8438 17.25 13.8529 17.25 13.862 17.25C13.8711 17.25 13.8802 17.25 13.8893 17.25C13.8984 17.25 13.9075 17.25 13.9166 17.25C13.9256 17.25 13.9347 17.25 13.9438 17.25C13.9528 17.25 13.9619 17.25 13.9709 17.25C13.98 17.25 13.989 17.25 13.998 17.25C14.007 17.25 14.0161 17.25 14.0251 17.25C14.0341 17.25 14.0431 17.25 14.0521 17.25C14.0611 17.25 14.0701 17.25 14.079 17.25C14.088 17.25 14.097 17.25 14.1059 17.25C14.1149 17.25 14.1238 17.25 14.1328 17.25C14.1417 17.25 14.1507 17.25 14.1596 17.25C14.1685 17.25 14.1774 17.25 14.1863 17.25C14.1952 17.25 14.2041 17.25 14.213 17.25C14.2219 17.25 14.2308 17.25 14.2397 17.25C14.2486 17.25 14.2574 17.25 14.2663 17.25C14.2751 17.25 14.284 17.25 14.2928 17.25C14.3016 17.25 14.3105 17.25 14.3193 17.25C14.3281 17.25 14.3369 17.25 14.3457 17.25C14.3545 17.25 14.3633 17.25 14.3721 17.25C14.3809 17.25 14.3897 17.25 14.3984 17.25C14.4072 17.25 14.4159 17.25 14.4247 17.25C14.4334 17.25 14.4422 17.25 14.4509 17.25C14.4596 17.25 14.4684 17.25 14.4771 17.25C14.4858 17.25 14.4945 17.25 14.5032 17.25C14.5118 17.25 14.5205 17.25 14.5292 17.25C14.5379 17.25 14.5465 17.25 14.5552 17.25C14.5638 17.25 14.5725 17.25 14.5811 17.25C14.5897 17.25 14.5984 17.25 14.607 17.25C14.6156 17.25 14.6242 17.25 14.6328 17.25C14.6414 17.25 14.65 17.25 14.6585 17.25C14.6671 17.25 14.6757 17.25 14.6842 17.25C14.6928 17.25 14.7013 17.25 14.7098 17.25C14.7184 17.25 14.7269 17.25 14.7354 17.25C14.7439 17.25 14.7524 17.25 14.7609 17.25C14.7694 17.25 14.7779 17.25 14.7864 17.25C14.7948 17.25 14.8033 17.25 14.8117 17.25C14.8202 17.25 14.8286 17.25 14.8371 17.25C14.8455 17.25 14.8539 17.25 14.8623 17.25C14.8707 17.25 14.8791 17.25 14.8875 17.25C14.8959 17.25 14.9043 17.25 14.9126 17.25C14.921 17.25 14.9293 17.25 14.9377 17.25C14.946 17.25 14.9544 17.25 14.9627 17.25C14.971 17.25 14.9793 17.25 14.9876 17.25C14.9959 17.25 15.0042 17.25 15.0125 17.25C15.0208 17.25 15.029 17.25 15.0373 17.25C15.0455 17.25 15.0538 17.25 15.062 17.25C15.0702 17.25 15.0785 17.25 15.0867 17.25C15.0949 17.25 15.1031 17.25 15.1113 17.25C15.1195 17.25 15.1276 17.25 15.1358 17.25C15.144 17.25 15.1521 17.25 15.1603 17.25C15.1684 17.25 15.1765 17.25 15.1847 17.25C15.1928 17.25 15.2009 17.25 15.209 17.25C15.2171 17.25 15.2252 17.25 15.2332 17.25C15.2413 17.25 15.2494 17.25 15.2574 17.25C15.2655 17.25 15.2735 17.25 15.2815 17.25C15.2896 17.25 15.2976 17.25 15.3056 17.25C15.3136 17.25 15.3216 17.25 15.3295 17.25C15.3375 17.25 15.3455 17.25 15.3534 17.25C15.3614 17.25 15.3693 17.25 15.3773 17.25C15.3852 17.25 15.3931 17.25 15.401 17.25C15.4089 17.25 15.4168 17.25 15.4247 17.25C15.4326 17.25 15.4404 17.25 15.4483 17.25C15.4561 17.25 15.464 17.25 15.4718 17.25C15.4797 17.25 15.4875 17.25 15.4953 17.25C15.5031 17.25 15.5109 17.25 15.5187 17.25C15.5264 17.25 15.5342 17.25 15.542 17.25C15.5497 17.25 15.5575 17.25 15.5652 17.25C15.5729 17.25 15.5806 17.25 15.5883 17.25C15.596 17.25 15.6037 17.25 15.6114 17.25C15.6191 17.25 15.6267 17.25 15.6344 17.25C15.6421 17.25 15.6497 17.25 15.6573 17.25C15.6649 17.25 15.6726 17.25 15.6802 17.25C15.6878 17.25 15.6953 17.25 15.7029 17.25C15.7105 17.25 15.718 17.25 15.7256 17.25C15.7331 17.25 15.7407 17.25 15.7482 17.25C15.7557 17.25 15.7632 17.25 15.7707 17.25C15.7782 17.25 15.7857 17.25 15.7932 17.25C15.8006 17.25 15.8081 17.25 15.8155 17.25C15.823 17.25 15.8304 17.25 15.8378 17.25C15.8452 17.25 15.8526 17.25 15.86 17.25C15.8674 17.25 15.8747 17.25 15.8821 17.25C15.8895 17.25 15.8968 17.25 15.9041 17.25C15.9115 17.25 15.9188 17.25 15.9261 17.25C15.9334 17.25 15.9407 17.25 15.9479 17.25C15.9552 17.25 15.9625 17.25 15.9697 17.25C15.9769 17.25 15.9842 17.25 15.9914 17.25C15.9986 17.25 16.0058 17.25 16.013 17.25C16.0202 17.25 16.0274 17.25 16.0345 17.25C16.0417 17.25 16.0488 17.25 16.056 17.25C16.0631 17.25 16.0702 17.25 16.0773 17.25C16.0844 17.25 16.0915 17.25 16.0986 17.25C16.1056 17.25 16.1127 17.25 16.1197 17.25C16.1268 17.25 16.1338 17.25 16.1408 17.25C16.1478 17.25 16.1548 17.25 16.1618 17.25C16.1688 17.25 16.1758 17.25 16.1827 17.25C16.1897 17.25 16.1966 17.25 16.2036 17.25C16.2105 17.25 16.2174 17.25 16.2243 17.25C16.2312 17.25 16.2381 17.25 16.2449 17.25C16.2518 17.25 16.2586 17.25 16.2655 17.25C16.2723 17.25 16.2791 17.25 16.2859 17.25C16.2927 17.25 16.2995 17.25 16.3063 17.25C16.3131 17.25 16.3198 17.25 16.3266 17.25C16.3333 17.25 16.34 17.25 16.3467 17.25C16.3535 17.25 16.3602 17.25 16.3668 17.25C16.3735 17.25 16.3802 17.25 16.3868 17.25C16.3935 17.25 16.4001 17.25 16.4067 17.25C16.4133 17.25 16.4199 17.25 16.4265 17.25C16.4331 17.25 16.4397 17.25 16.4462 17.25C16.4528 17.25 16.4593 17.25 16.4659 17.25C16.4724 17.25 16.4789 17.25 16.4854 17.25C16.4919 17.25 16.4983 17.25 16.5048 17.25C16.5113 17.25 16.5177 17.25 16.5241 17.25C16.5306 17.25 16.537 17.25 16.5434 17.25C16.5498 17.25 16.5561 17.25 16.5625 17.25C16.5689 17.25 16.5752 17.25 16.5815 17.25C16.5879 17.25 16.5942 17.25 16.6005 17.25C16.6068 17.25 16.613 17.25 16.6193 17.25C16.6256 17.25 16.6318 17.25 16.638 17.25C16.6443 17.25 16.6505 17.25 16.6567 17.25C16.6629 17.25 16.6691 17.25 16.6752 17.25C16.6814 17.25 16.6875 17.25 16.6937 17.25C16.6998 17.25 16.7059 17.25 16.712 17.25C16.7181 17.25 16.7242 17.25 16.7302 17.25C16.7363 17.25 16.7423 17.25 16.7484 17.25C16.7544 17.25 16.7604 17.25 16.7664 17.25C16.7724 17.25 16.7784 17.25 16.7843 17.25C16.7903 17.25 16.7962 17.25 16.8022 17.25C16.8081 17.25 16.814 17.25 16.8199 17.25C16.8258 17.25 16.8316 17.25 16.8375 17.25C16.8433 17.25 16.8492 17.25 16.855 17.25C16.8608 17.25 16.8666 17.25 16.8724 17.25C16.8782 17.25 16.884 17.25 16.8897 17.25C16.8955 17.25 16.9012 17.25 16.9069 17.25C16.9126 17.25 16.9183 17.25 16.924 17.25C16.9297 17.25 16.9353 17.25 16.941 17.25C16.9466 17.25 16.9522 17.25 16.9579 17.25C16.9635 17.25 16.9691 17.25 16.9746 17.25C16.9802 17.25 16.9857 17.25 16.9913 17.25C16.9968 17.25 17.0023 17.25 17.0078 17.25C17.0133 17.25 17.0188 17.25 17.0243 17.25C17.0297 17.25 17.0352 17.25 17.0406 17.25C17.046 17.25 17.0514 17.25 17.0568 17.25C17.0622 17.25 17.0676 17.25 17.0729 17.25C17.0783 17.25 17.0836 17.25 17.0889 17.25C17.0942 17.25 17.0995 17.25 17.1048 17.25C17.1101 17.25 17.1154 17.25 17.1206 17.25C17.1258 17.25 17.1311 17.25 17.1363 17.25C17.1415 17.25 17.1466 17.25 17.1518 17.25C17.157 17.25 17.1621 17.25 17.1672 17.25C17.1724 17.25 17.1775 17.25 17.1826 17.25C17.1877 17.25 17.1927 17.25 17.1978 17.25C17.2028 17.25 17.2079 17.25 17.2129 17.25C17.2179 17.25 17.2229 17.25 17.2279 17.25C17.2328 17.25 17.2378 17.25 17.2427 17.25C17.2477 17.25 17.2526 17.25 17.2575 17.25C17.2624 17.25 17.2672 17.25 17.2721 17.25C17.277 17.25 17.2818 17.25 17.2866 17.25C17.2914 17.25 17.2962 17.25 17.301 17.25C17.3058 17.25 17.3106 17.25 17.3153 17.25C17.32 17.25 17.3248 17.25 17.3295 17.25C17.3342 17.25 17.3388 17.25 17.3435 17.25C17.3482 17.25 17.3528 17.25 17.3574 17.25C17.362 17.25 17.3666 17.25 17.3712 17.25C17.3758 17.25 17.3804 17.25 17.3849 17.25C17.3894 17.25 17.394 17.25 17.3985 17.25C17.403 17.25 17.4075 17.25 17.4119 17.25C17.4164 17.25 17.4208 17.25 17.4252 17.25C17.4297 17.25 17.4341 17.25 17.4384 17.25C17.4428 17.25 17.4472 17.25 17.4515 17.25C17.4559 17.25 17.4602 17.25 17.4645 17.25C17.4688 17.25 17.473 17.25 17.4773 17.25C17.4816 17.25 17.4858 17.25 17.49 17.25C17.4942 17.25 17.4984 17.25 17.5026 17.25C17.5068 17.25 17.5109 17.25 17.515 17.25C17.5192 17.25 17.5233 17.25 17.5274 17.25C17.5315 17.25 17.5355 17.25 17.5396 17.25C17.5436 17.25 17.5477 17.25 17.5517 17.25C17.5557 17.25 17.5597 17.25 17.5636 17.25C17.5676 17.25 17.5715 17.25 17.5755 17.25C17.5794 17.25 17.5833 17.25 17.5872 17.25C17.591 17.25 17.5949 17.25 17.5987 17.25C17.6026 17.25 17.6064 17.25 17.6102 17.25C17.614 17.25 17.6177 17.25 17.6215 17.25C17.6252 17.25 17.629 17.25 17.6327 17.25C17.6364 17.25 17.6401 17.25 17.6437 17.25C17.6474 17.25 17.651 17.25 17.6547 17.25C17.6583 17.25 17.6619 17.25 17.6655 17.25C17.669 17.25 17.6726 17.25 17.6761 17.25C17.6797 17.25 17.6832 17.25 17.6867 17.25C17.6902 17.25 17.6936 17.25 17.6971 17.25C17.7005 17.25 17.7039 17.25 17.7073 17.25C17.7108 17.25 17.7141 17.25 17.7175 17.25C17.7208 17.25 17.7242 17.25 17.7275 17.25C17.7308 17.25 17.7341 17.25 17.7374 17.25C17.7406 17.25 17.7439 17.25 17.7471 17.25C17.7503 17.25 17.7535 17.25 17.7567 17.25C17.7599 17.25 17.763 17.25 17.7662 17.25C17.7693 17.25 17.7724 17.25 17.7755 17.25C17.7786 17.25 17.7817 17.25 17.7847 17.25C17.7878 17.25 17.7908 17.25 17.7938 17.25C17.7968 17.25 17.7997 17.25 17.8027 17.25C17.8056 17.25 17.8086 17.25 17.8115 17.25C17.8144 17.25 17.8173 17.25 17.8201 17.25C17.823 17.25 17.8258 17.25 17.8286 17.25C17.8315 17.25 17.8343 17.25 17.837 17.25C17.8398 17.25 17.8425 17.25 17.8453 17.25C17.848 17.25 17.8507 17.25 17.8533 17.25C17.856 17.25 17.8587 17.25 17.8613 17.25C17.8639 17.25 17.8665 17.25 17.8691 17.25C17.8717 17.25 17.8743 17.25 17.8768 17.25C17.8793 17.25 17.8818 17.25 17.8843 17.25C17.8868 17.25 17.8893 17.25 17.8917 17.25C17.8942 17.25 17.8966 17.25 17.899 17.25C17.9014 17.25 17.9037 17.25 17.9061 17.25C17.9084 17.25 17.9107 17.25 17.913 17.25C17.9153 17.25 17.9176 17.25 17.9199 17.25C17.9221 17.25 17.9243 17.25 17.9265 17.25C17.9287 17.25 17.9309 17.25 17.9331 17.25C17.9352 17.25 17.9373 17.25 17.9394 17.25C17.9415 17.25 17.9436 17.25 17.9457 17.25C17.9477 17.25 17.9498 17.25 17.9518 17.25C17.9538 17.25 17.9558 17.25 17.9577 17.25C17.9597 17.25 17.9616 17.25 17.9635 17.25C17.9654 17.25 17.9673 17.25 17.9692 17.25C17.971 17.25 17.9729 17.25 17.9747 17.25C17.9765 17.25 17.9783 17.25 17.9801 17.25C17.9818 17.25 17.9836 17.25 17.9853 17.25C17.987 17.25 17.9887 17.25 17.9903 17.25C17.992 17.25 17.9936 17.25 17.9952 17.25C17.9969 17.25 17.9984 17.25 18 17.25V15.75ZM6 15.75C5.98656 15.75 5.95173 15.7473 5.90917 15.7351C5.86765 15.7232 5.83512 15.7071 5.81323 15.6913C5.79406 15.6775 5.7836 15.6648 5.77591 15.6499C5.76853 15.6356 5.75 15.5929 5.75 15.5H4.25C4.25 16.1444 4.53532 16.6196 4.93677 16.9087C5.29998 17.1702 5.71332 17.25 6 17.25V15.75ZM5.75 15.5C5.75 15.621 5.69491 15.6601 5.7419 15.6013C5.78055 15.553 5.85068 15.487 5.95 15.4125C6.04498 15.3413 6.14403 15.2791 6.22165 15.2338C6.25968 15.2116 6.29074 15.1945 6.3112 15.1836C6.32138 15.1781 6.32882 15.1742 6.33303 15.1721C6.33514 15.171 6.33643 15.1703 6.33685 15.1701C6.33706 15.17 6.33705 15.17 6.33681 15.1701C6.33669 15.1702 6.33652 15.1703 6.33628 15.1704C6.33617 15.1704 6.33604 15.1705 6.33589 15.1706C6.33582 15.1706 6.3357 15.1707 6.33566 15.1707C6.33554 15.1708 6.33541 15.1708 6 14.5C5.66459 13.8292 5.66445 13.8292 5.66432 13.8293C5.66426 13.8293 5.66412 13.8294 5.66402 13.8295C5.66381 13.8296 5.66359 13.8297 5.66335 13.8298C5.66288 13.83 5.66234 13.8303 5.66174 13.8306C5.66054 13.8312 5.6591 13.8319 5.65741 13.8328C5.65405 13.8345 5.64972 13.8367 5.6445 13.8394C5.63407 13.8448 5.62002 13.8522 5.60287 13.8614C5.56863 13.8797 5.52157 13.9056 5.46585 13.9381C5.35597 14.0022 5.20502 14.0962 5.05 14.2125C4.89932 14.3255 4.71945 14.4782 4.5706 14.6643C4.43009 14.8399 4.25 15.129 4.25 15.5H5.75ZM6.3721 15.1512L9.8721 13.1512L9.1279 11.8488L5.6279 13.8488L6.3721 15.1512Z" fill="#111111"/>
<path d="M14 8H22" stroke="#111111" stroke-width="1.5" stroke-linecap="round" stroke-linejoin="round"/>
<path d="M2 8H6.5" stroke="#111111" stroke-width="1.5" stroke-linecap="round" stroke-linejoin="round"/>
</svg>
