<svg width="24" height="24" viewBox="0 0 24 24" fill="none" xmlns="http://www.w3.org/2000/svg">
<path d="M8.01554 16.0725C8.33175 16.3401 8.80498 16.3007 9.07254 15.9845C9.3401 15.6683 9.30066 15.195 8.98446 14.9275L8.01554 16.0725ZM2 10L2.48446 9.42746C2.26152 9.23882 1.94936 9.19674 1.68444 9.31962C1.41951 9.44249 1.25 9.70797 1.25 10H2ZM22 10H22.75C22.75 9.70797 22.5805 9.44249 22.3156 9.31962C22.0506 9.19674 21.7385 9.23882 21.5155 9.42746L22 10ZM15.0155 14.9275C14.6993 15.195 14.6599 15.6683 14.9275 15.9845C15.195 16.3007 15.6683 16.3401 15.9845 16.0725L15.0155 14.9275ZM8.98446 14.9275L2.48446 9.42746L1.51554 10.5725L8.01554 16.0725L8.98446 14.9275ZM1.25 10V20H2.75V10H1.25ZM4 22.75H20V21.25H4V22.75ZM22.75 20V10H21.25V20H22.75ZM21.5155 9.42746L15.0155 14.9275L15.9845 16.0725L22.4845 10.5725L21.5155 9.42746ZM20 22.75C21.5188 22.75 22.75 21.5188 22.75 20H21.25C21.25 20.6904 20.6904 21.25 20 21.25V22.75ZM1.25 20C1.25 21.5188 2.48122 22.75 4 22.75V21.25C3.30964 21.25 2.75 20.6904 2.75 20H1.25Z" fill="#111111"/>
<path d="M2.5 20.5L12 13L21.5 20.5" stroke="#111111" stroke-width="1.5" stroke-linecap="round" stroke-linejoin="round"/>
<path d="M2 10L12 2L22 10" stroke="#111111" stroke-width="1.5" stroke-linecap="round" stroke-linejoin="round"/>
</svg>
